# xmcd
#
# Track frame offsets:
#	150
#	17492
#	33327
#	47195
#	62509
#	75889
#	94674
#	116351
#	129892
#	144269
#	160394
#	171927
#	185599
#
# Disc length: 2691 seconds
#
# Revision: 1
# Processed by: cddbd v1.5.2PL0 Copyright (c) Steve Scherf et al.
# Submitted via: audiograbber 1.83.01
#
DISCID=980a810d
DTITLE=Stef Meeder - Medleys van bekende Hollandse Hits - CD1 -
DYEAR=2003
DGENRE=Easy Listening
TTITLE0=Als de zon schijnt -  Vlam in de pijp - Hilversum 3
TTITLE1=Weet je nog die tijd - Waterlooplein - Daar droom ik van
TTITLE2=Kleine jodeljongen - Mijn kijkdoos - 's nachts na tweeen
TTITLE3=Foto albums - Zo heerlijk rustig - De winter was lang
TTITLE4=Groetjes uit Rio - 't is weer voorbij - Is je moeder niet thuis
TTITLE5=Koffie - Coste Del Sol - Daar in het kleine cafe - Als de klok van Arne
TTITLE5=muiden
TTITLE6=Brandend zand - Marina - 'k meen het
TTITLE7=Bonnie kom je buiten spelen - Engelen bestaan niet
TTITLE8=Harlekino - Santiago - Barcelona
TTITLE9=Zing met me mee - Het is een nacht - Je hoeft niet naar huis vanaacht
TTITLE10=Als sterren flonk'rend aan de hemel staan - Een heel klein huisje - Ee
TTITLE10=n boeketje rode rozen
TTITLE11=April in Portugal - Varcarolle in de nacht - Witte rozen uit Athene
TTITLE12=Pizza lied - Mexico - Vanavond heb ik hoofdpijn - Liefde in de nacht
EXTD=
EXTT0=
EXTT1=
EXTT2=
EXTT3=
EXTT4=
EXTT5=
EXTT6=
EXTT7=
EXTT8=
EXTT9=
EXTT10=
EXTT11=
EXTT12=
PLAYORDER=
